<?xml version="1.0" encoding="UTF-8"?><svg id="Capa_2" xmlns="http://www.w3.org/2000/svg" viewBox="0 0 1391.8 498.01"><defs><style>.cls-1{fill:#fff;}</style></defs><g id="Layer_1"><path class="cls-1" d="m1391.8,75.31c0,6.54-4.83,11.37-11.37,11.37-6.54,0-11.37-4.83-11.37-11.37,0-6.54,4.83-11.37,11.37-11.37,6.54,0,11.37,4.83,11.37,11.37Z"/><path class="cls-1" d="m1369.06,132.16c0-6.54,4.83-11.37,11.37-11.37,6.54,0,11.37,4.83,11.37,11.37v11.37s-22.74,0-22.74,0v-11.37Z"/><path class="cls-1" d="m1361.22,189.01c0,6.54-4.83,11.37-11.37,11.37s-11.37-4.83-11.37-11.37,4.83-11.37,11.37-11.37,11.37,4.83,11.37,11.37Z"/><path class="cls-1" d="m1338.48,160.59c0-6.54,4.83-11.37,11.37-11.37s11.37,4.83,11.37,11.37v11.37h-22.74v-11.37Z"/><path class="cls-1" d="m1361.22,103.73c0,6.54-4.83,11.37-11.37,11.37s-11.37-4.83-11.37-11.37v-11.37h22.74v11.37Z"/><rect class="cls-1" x="1338.48" y="120.79" width="22.74" height="22.74" transform="translate(2699.7 264.32) rotate(180)"/><rect class="cls-1" x="1338.48" y="63.94" width="22.74" height="22.74" transform="translate(2699.7 150.62) rotate(180)"/><rect class="cls-1" x="1369.06" y="177.64" width="22.74" height="22.74" transform="translate(2760.87 378.02) rotate(180)"/><path class="cls-1" d="m413.11,314.08c0,6.54-4.83,11.37-11.37,11.37-6.54,0-11.37-4.83-11.37-11.37,0-6.54,4.83-11.37,11.37-11.37,6.54,0,11.37,4.83,11.37,11.37Z"/><path class="cls-1" d="m455.06,314.08c0,6.54-4.83,11.37-11.37,11.37-6.54,0-11.37-4.83-11.37-11.37,0-6.54,4.83-11.37,11.37-11.37,6.54,0,11.37,4.83,11.37,11.37Z"/><path class="cls-1" d="m390.37,370.93c0-6.54,4.83-11.37,11.37-11.37,6.54,0,11.37,4.83,11.37,11.37v11.37s-22.74,0-22.74,0v-11.37Z"/><path class="cls-1" d="m382.53,427.79c0,6.54-4.83,11.37-11.37,11.37s-11.37-4.83-11.37-11.37,4.83-11.37,11.37-11.37,11.37,4.83,11.37,11.37Z"/><path class="cls-1" d="m359.79,399.36c0-6.54,4.83-11.37,11.37-11.37s11.37,4.83,11.37,11.37v11.37h-22.74v-11.37Z"/><path class="cls-1" d="m382.53,342.51c0,6.54-4.83,11.37-11.37,11.37s-11.37-4.83-11.37-11.37v-11.37h22.74v11.37Z"/><rect class="cls-1" x="359.79" y="359.56" width="22.74" height="22.74" transform="translate(742.32 741.87) rotate(180)"/><rect class="cls-1" x="359.79" y="302.71" width="22.74" height="22.74" transform="translate(742.32 628.16) rotate(180)"/><rect class="cls-1" x="390.37" y="416.42" width="22.74" height="22.74" transform="translate(803.48 855.57) rotate(180)"/><rect class="cls-1" x="420.95" y="416.42" width="22.74" height="22.74" transform="translate(864.64 855.57) rotate(180)"/><path class="cls-1" d="m138.93,427.78c0,6.54-4.83,11.37-11.37,11.37s-11.37-4.83-11.37-11.37,4.83-11.37,11.37-11.37,11.37,4.83,11.37,11.37Z"/><path class="cls-1" d="m195.78,342.51c0,6.54-4.83,11.37-11.37,11.37s-11.37-4.83-11.37-11.37,4.83-11.37,11.37-11.37,11.37,4.83,11.37,11.37Z"/><path class="cls-1" d="m116.19,314.08c0-6.54,4.83-11.37,11.37-11.37,6.54,0,11.37,4.83,11.37,11.37s-4.83,11.37-11.37,11.37c-6.54,0-11.37-4.83-11.37-11.37Z"/><path class="cls-1" d="m116.19,399.36c0-6.54,4.83-11.37,11.37-11.37s11.37,4.83,11.37,11.37v11.37h-22.74v-11.37Z"/><path class="cls-1" d="m138.93,342.51c0,6.54-4.83,11.37-11.37,11.37s-11.37-4.83-11.37-11.37v-11.37h22.74v11.37Z"/><path class="cls-1" d="m168.37,370.93c0,6.54-4.83,11.37-11.37,11.37-6.54,0-11.37-4.83-11.37-11.37v-11.37s22.74,0,22.74,0v11.37Z"/><rect class="cls-1" x="116.19" y="359.56" width="22.74" height="22.74" transform="translate(255.12 741.87) rotate(180)"/><rect class="cls-1" x="145.63" y="302.71" width="22.74" height="22.74"/><path class="cls-1" d="m830.31,427.78c0,6.54-4.83,11.37-11.37,11.37s-11.37-4.83-11.37-11.37,4.83-11.37,11.37-11.37,11.37,4.83,11.37,11.37Z"/><path class="cls-1" d="m887.17,342.51c0,6.54-4.83,11.37-11.37,11.37s-11.37-4.83-11.37-11.37,4.83-11.37,11.37-11.37,11.37,4.83,11.37,11.37Z"/><path class="cls-1" d="m807.57,314.08c0-6.54,4.83-11.37,11.37-11.37,6.54,0,11.37,4.83,11.37,11.37,0,6.54-4.83,11.37-11.37,11.37-6.54,0-11.37-4.83-11.37-11.37Z"/><path class="cls-1" d="m807.57,399.36c0-6.54,4.83-11.37,11.37-11.37s11.37,4.83,11.37,11.37v11.37h-22.74v-11.37Z"/><path class="cls-1" d="m830.31,342.51c0,6.54-4.83,11.37-11.37,11.37s-11.37-4.83-11.37-11.37v-11.37h22.74v11.37Z"/><path class="cls-1" d="m859.75,370.93c0,6.54-4.83,11.37-11.37,11.37-6.54,0-11.37-4.83-11.37-11.37v-11.37s22.74,0,22.74,0v11.37Z"/><rect class="cls-1" x="807.57" y="359.56" width="22.74" height="22.74" transform="translate(1637.89 741.87) rotate(180)"/><rect class="cls-1" x="837.01" y="302.71" width="22.74" height="22.74"/><rect class="cls-1" x="778.13" y="302.71" width="22.74" height="22.74"/><path class="cls-1" d="m1073.85,427.78c0,6.54-4.83,11.37-11.37,11.37s-11.37-4.83-11.37-11.37,4.83-11.37,11.37-11.37,11.37,4.83,11.37,11.37Z"/><path class="cls-1" d="m1051.11,399.36c0-6.54,4.83-11.37,11.37-11.37s11.37,4.83,11.37,11.37v11.37h-22.74v-11.37Z"/><path class="cls-1" d="m1073.85,342.51c0,6.54-4.83,11.37-11.37,11.37s-11.37-4.83-11.37-11.37v-11.37h22.74v11.37Z"/><rect class="cls-1" x="1051.11" y="359.56" width="22.74" height="22.74" transform="translate(2124.96 741.87) rotate(180)"/><rect class="cls-1" x="1051.11" y="302.71" width="22.74" height="22.74" transform="translate(2124.96 628.16) rotate(180)"/><rect class="cls-1" x="1081.81" y="416.41" width="22.74" height="22.74"/><path class="cls-1" d="m1312.21,427.78c0-6.54,4.83-11.37,11.37-11.37,6.54,0,11.37,4.83,11.37,11.37,0,6.54-4.83,11.37-11.37,11.37-6.54,0-11.37-4.83-11.37-11.37Z"/><path class="cls-1" d="m1334.95,370.93c0,6.54-4.83,11.37-11.37,11.37s-11.37-4.83-11.37-11.37v-11.37s22.74,0,22.74,0v11.37Z"/><path class="cls-1" d="m1281.63,314.08c0-6.54,4.83-11.37,11.37-11.37s11.37,4.83,11.37,11.37-4.83,11.37-11.37,11.37-11.37-4.83-11.37-11.37Z"/><path class="cls-1" d="m1304.37,342.51c0,6.54-4.83,11.37-11.37,11.37s-11.37-4.83-11.37-11.37v-11.37h22.74v11.37Z"/><path class="cls-1" d="m1281.63,399.36c0-6.54,4.83-11.37,11.37-11.37s11.37,4.83,11.37,11.37v11.37h-22.74v-11.37Z"/><rect class="cls-1" x="1281.63" y="359.56" width="22.74" height="22.74"/><rect class="cls-1" x="1281.63" y="416.41" width="22.74" height="22.74"/><rect class="cls-1" x="1312.21" y="302.71" width="22.74" height="22.74"/><path class="cls-1" d="m1273.79,314.08c0,6.54-4.83,11.37-11.37,11.37-6.54,0-11.37-4.83-11.37-11.37,0-6.54,4.83-11.37,11.37-11.37,6.54,0,11.37,4.83,11.37,11.37Z"/><rect class="cls-1" x="1251.05" y="416.41" width="22.74" height="22.74" transform="translate(2524.84 855.57) rotate(180)"/><path class="cls-1" d="m1365.53,314.08c0,6.54-4.83,11.37-11.37,11.37-6.54,0-11.37-4.83-11.37-11.37,0-6.54,4.83-11.37,11.37-11.37,6.54,0,11.37,4.83,11.37,11.37Z"/><rect class="cls-1" x="1342.79" y="416.41" width="22.74" height="22.74" transform="translate(2708.33 855.57) rotate(180)"/><path class="cls-1" d="m1073.63,75.31c0-6.54,4.83-11.37,11.37-11.37s11.37,4.83,11.37,11.37-4.83,11.37-11.37,11.37-11.37-4.83-11.37-11.37Z"/><path class="cls-1" d="m1128.15,75.31c0,6.54-4.83,11.37-11.37,11.37-6.54,0-11.37-4.83-11.37-11.37,0-6.54,4.83-11.37,11.37-11.37,6.54,0,11.37,4.83,11.37,11.37Z"/><path class="cls-1" d="m1132.06,132.16c0-6.54,4.83-11.37,11.37-11.37s11.37,4.83,11.37,11.37-4.83,11.37-11.37,11.37-11.37-4.83-11.37-11.37Z"/><path class="cls-1" d="m1096.37,103.73c0,6.54-4.83,11.37-11.37,11.37s-11.37-4.83-11.37-11.37v-11.37h22.74v11.37Z"/><path class="cls-1" d="m1073.63,160.59c0-6.54,4.83-11.37,11.37-11.37s11.37,4.83,11.37,11.37v11.37h-22.74v-11.37Z"/><path class="cls-1" d="m1154.8,160.59c0,6.54-4.83,11.37-11.37,11.37-6.54,0-11.37-4.83-11.37-11.37v-11.37s22.74,0,22.74,0v11.37Z"/><rect class="cls-1" x="1073.63" y="120.79" width="22.74" height="22.74"/><rect class="cls-1" x="1132.06" y="92.36" width="22.74" height="22.74"/><rect class="cls-1" x="1073.63" y="177.64" width="22.74" height="22.74"/><rect class="cls-1" x="1105.41" y="177.64" width="22.74" height="22.74" transform="translate(2233.57 378.02) rotate(180)"/><path class="cls-1" d="m823.49,189.01c0-6.54,4.83-11.37,11.37-11.37s11.37,4.83,11.37,11.37v11.37h-22.74v-11.37Z"/><path class="cls-1" d="m903.08,189.01c0,6.54-4.83,11.37-11.37,11.37-6.54,0-11.37-4.83-11.37-11.37v-11.37s22.74,0,22.74,0v11.37Z"/><path class="cls-1" d="m880.34,103.73c0-6.54,4.83-11.37,11.37-11.37,6.54,0,11.37,4.83,11.37,11.37v11.37s-22.74,0-22.74,0v-11.37Z"/><path class="cls-1" d="m846.23,132.16c0,6.54-4.83,11.37-11.37,11.37s-11.37-4.83-11.37-11.37v-11.37h22.74v11.37Z"/><rect class="cls-1" x="823.49" y="149.22" width="22.74" height="22.74" transform="translate(1669.72 321.17) rotate(180)"/><rect class="cls-1" x="880.34" y="120.79" width="22.74" height="22.74" transform="translate(1783.43 264.32) rotate(180)"/><rect class="cls-1" x="823.49" y="92.36" width="22.74" height="22.74" transform="translate(1669.72 207.47) rotate(180)"/><path class="cls-1" d="m851.92,75.31c0-6.54,4.83-11.37,11.37-11.37s11.37,4.83,11.37,11.37-4.83,11.37-11.37,11.37-11.37-4.83-11.37-11.37Z"/><path class="cls-1" d="m851.92,132.16c0-6.54,4.83-11.37,11.37-11.37s11.37,4.83,11.37,11.37-4.83,11.37-11.37,11.37-11.37-4.83-11.37-11.37Z"/><path class="cls-1" d="m880.34,160.59c0-6.54,4.83-11.37,11.37-11.37s11.37,4.83,11.37,11.37-4.83,11.37-11.37,11.37-11.37-4.83-11.37-11.37Z"/><path class="cls-1" d="m566.88,189.01c0,6.54-4.83,11.37-11.37,11.37s-11.37-4.83-11.37-11.37,4.83-11.37,11.37-11.37,11.37,4.83,11.37,11.37Z"/><path class="cls-1" d="m597.3,103.8c0,6.54-4.83,11.37-11.37,11.37s-11.37-4.83-11.37-11.37,4.83-11.37,11.37-11.37,11.37,4.83,11.37,11.37Z"/><path class="cls-1" d="m650.22,103.8c0,6.54-4.83,11.37-11.37,11.37s-11.37-4.83-11.37-11.37,4.83-11.37,11.37-11.37,11.37,4.83,11.37,11.37Z"/><path class="cls-1" d="m544.14,160.59c0-6.54,4.83-11.37,11.37-11.37s11.37,4.83,11.37,11.37v11.37h-22.74v-11.37Z"/><path class="cls-1" d="m623.76,130.89c0,6.54-4.83,11.37-11.37,11.37-6.54,0-11.37-4.83-11.37-11.37v-11.37s22.74,0,22.74,0v11.37Z"/><path class="cls-1" d="m566.88,103.73c0,6.54-4.83,11.37-11.37,11.37s-11.37-4.83-11.37-11.37v-11.37h22.74v11.37Z"/><rect class="cls-1" x="544.14" y="120.79" width="22.74" height="22.74" transform="translate(1111.02 264.32) rotate(180)"/><rect class="cls-1" x="544.14" y="63.94" width="22.74" height="22.74" transform="translate(1111.02 150.62) rotate(180)"/><path class="cls-1" d="m657.84,75.31c0-6.54,4.83-11.37,11.37-11.37s11.37,4.83,11.37,11.37-4.83,11.37-11.37,11.37-11.37-4.83-11.37-11.37Z"/><path class="cls-1" d="m657.84,132.16c0-6.54,4.83-11.37,11.37-11.37s11.37,4.83,11.37,11.37-4.83,11.37-11.37,11.37-11.37-4.83-11.37-11.37Z"/><path class="cls-1" d="m680.58,103.73c0,6.54-4.83,11.37-11.37,11.37s-11.37-4.83-11.37-11.37v-11.37h22.74v11.37Z"/><path class="cls-1" d="m657.84,160.59c0-6.54,4.83-11.37,11.37-11.37s11.37,4.83,11.37,11.37v11.37h-22.74v-11.37Z"/><rect class="cls-1" x="657.84" y="177.64" width="22.74" height="22.74"/><path class="cls-1" d="m351.03,75.31c0-6.54,4.83-11.37,11.37-11.37s11.37,4.83,11.37,11.37-4.83,11.37-11.37,11.37-11.37-4.83-11.37-11.37Z"/><path class="cls-1" d="m421.69,52.57c0-6.54,4.83-11.37,11.37-11.37s11.37,4.83,11.37,11.37-4.83,11.37-11.37,11.37-11.37-4.83-11.37-11.37Z"/><path class="cls-1" d="m378.49,132.16c0-6.54,4.83-11.37,11.37-11.37s11.37,4.83,11.37,11.37-4.83,11.37-11.37,11.37-11.37-4.83-11.37-11.37Z"/><path class="cls-1" d="m344.38,103.73c0,6.54-4.83,11.37-11.37,11.37s-11.37-4.83-11.37-11.37v-11.37h22.74v11.37Z"/><path class="cls-1" d="m321.64,160.59c0-6.54,4.83-11.37,11.37-11.37s11.37,4.83,11.37,11.37v11.37h-22.74v-11.37Z"/><path class="cls-1" d="m401.23,160.59c0,6.54-4.83,11.37-11.37,11.37-6.54,0-11.37-4.83-11.37-11.37v-11.37s22.74,0,22.74,0v11.37Z"/><rect class="cls-1" x="321.64" y="120.79" width="22.74" height="22.74"/><rect class="cls-1" x="378.49" y="92.43" width="22.74" height="22.74"/><path class="cls-1" d="m373.77,189.01c0,6.54-4.83,11.37-11.37,11.37s-11.37-4.83-11.37-11.37,4.83-11.37,11.37-11.37,11.37,4.83,11.37,11.37Z"/><path class="cls-1" d="m627.31,427.79c0,6.54-4.83,11.37-11.37,11.37s-11.37-4.83-11.37-11.37,4.83-11.37,11.37-11.37,11.37,4.83,11.37,11.37Z"/><path class="cls-1" d="m599.85,370.93c0,6.54-4.83,11.37-11.37,11.37s-11.37-4.83-11.37-11.37,4.83-11.37,11.37-11.37,11.37,4.83,11.37,11.37Z"/><path class="cls-1" d="m633.96,399.36c0-6.54,4.83-11.37,11.37-11.37s11.37,4.83,11.37,11.37v11.37h-22.74v-11.37Z"/><path class="cls-1" d="m633.96,342.51c0-6.54,4.83-11.37,11.37-11.37,6.54,0,11.37,4.83,11.37,11.37v11.37s-22.74,0-22.74,0v-11.37Z"/><path class="cls-1" d="m599.85,342.51c0,6.54-4.83,11.37-11.37,11.37-6.54,0-11.37-4.83-11.37-11.37v-11.37s22.74,0,22.74,0v11.37Z"/><rect class="cls-1" x="633.97" y="359.56" width="22.74" height="22.74" transform="translate(1290.67 741.87) rotate(180)"/><rect class="cls-1" x="577.11" y="387.92" width="22.74" height="22.74" transform="translate(1176.97 798.58) rotate(180)"/><path class="cls-1" d="m604.57,314.08c0-6.54,4.83-11.37,11.37-11.37s11.37,4.83,11.37,11.37-4.83,11.37-11.37,11.37-11.37-4.83-11.37-11.37Z"/><path class="cls-1" d="m57.25,75.31c0-6.54,4.83-11.37,11.37-11.37s11.37,4.83,11.37,11.37-4.83,11.37-11.37,11.37-11.37-4.83-11.37-11.37Z"/><path class="cls-1" d="m0,75.31c0-6.54,4.83-11.37,11.37-11.37s11.37,4.83,11.37,11.37-4.83,11.37-11.37,11.37S0,81.85,0,75.31Z"/><path class="cls-1" d="m0,486.64c0-6.54,4.83-11.37,11.37-11.37s11.37,4.83,11.37,11.37-4.83,11.37-11.37,11.37-11.37-4.83-11.37-11.37Z"/><path class="cls-1" d="m87.88,103.8c0-6.54,4.83-11.37,11.37-11.37s11.37,4.83,11.37,11.37-4.83,11.37-11.37,11.37-11.37-4.83-11.37-11.37Z"/><path class="cls-1" d="m79.99,103.73c0,6.54-4.83,11.37-11.37,11.37s-11.37-4.83-11.37-11.37v-11.37h22.74v11.37Z"/><path class="cls-1" d="m57.25,160.59c0-6.54,4.83-11.37,11.37-11.37s11.37,4.83,11.37,11.37v11.37h-22.74v-11.37Z"/><path class="cls-1" d="m110.62,132.16c0-6.54,4.83-11.37,11.37-11.37s11.37,4.83,11.37,11.37v11.37h-22.74v-11.37Z"/><rect class="cls-1" x="57.25" y="120.79" width="22.74" height="22.74"/><rect class="cls-1" x="57.25" y="177.64" width="22.74" height="22.74"/><path class="cls-1" d="m163.76,189.01c0,6.54-4.83,11.37-11.37,11.37s-11.37-4.83-11.37-11.37,4.83-11.37,11.37-11.37,11.37,4.83,11.37,11.37Z"/><path class="cls-1" d="m222.68,189.01c0,6.54-4.83,11.37-11.37,11.37s-11.37-4.83-11.37-11.37,4.83-11.37,11.37-11.37,11.37,4.83,11.37,11.37Z"/><path class="cls-1" d="m763.41,189.01c0,6.54-4.83,11.37-11.37,11.37s-11.37-4.83-11.37-11.37,4.83-11.37,11.37-11.37,11.37,4.83,11.37,11.37Z"/><path class="cls-1" d="m744.38,370.93c0,6.54-4.83,11.37-11.37,11.37s-11.37-4.83-11.37-11.37,4.83-11.37,11.37-11.37,11.37,4.83,11.37,11.37Z"/><path class="cls-1" d="m48.29,370.93c0,6.54-4.83,11.37-11.37,11.37s-11.37-4.83-11.37-11.37,4.83-11.37,11.37-11.37,11.37,4.83,11.37,11.37Z"/><path class="cls-1" d="m48.29,342.51c0,6.54-4.83,11.37-11.37,11.37s-11.37-4.83-11.37-11.37,4.83-11.37,11.37-11.37,11.37,4.83,11.37,11.37Z"/><path class="cls-1" d="m1196.58,370.93c0,6.54-4.83,11.37-11.37,11.37s-11.37-4.83-11.37-11.37,4.83-11.37,11.37-11.37,11.37,4.83,11.37,11.37Z"/><path class="cls-1" d="m286.56,370.93c0,6.54-4.83,11.37-11.37,11.37s-11.37-4.83-11.37-11.37,4.83-11.37,11.37-11.37,11.37,4.83,11.37,11.37Z"/><path class="cls-1" d="m703.32,262.66c0,6.54-4.83,11.37-11.37,11.37s-11.37-4.83-11.37-11.37,4.83-11.37,11.37-11.37,11.37,4.83,11.37,11.37Z"/><path class="cls-1" d="m286.42,262.66c0,6.54-4.83,11.37-11.37,11.37s-11.37-4.83-11.37-11.37,4.83-11.37,11.37-11.37,11.37,4.83,11.37,11.37Z"/><path class="cls-1" d="m1029.38,239.92c0,6.54-4.83,11.37-11.37,11.37s-11.37-4.83-11.37-11.37,4.83-11.37,11.37-11.37,11.37,4.83,11.37,11.37Z"/><path class="cls-1" d="m962.38,399.36c0,6.54-4.83,11.37-11.37,11.37s-11.37-4.83-11.37-11.37,4.83-11.37,11.37-11.37,11.37,4.83,11.37,11.37Z"/><path class="cls-1" d="m222.68,11.37c0,6.54-4.83,11.37-11.37,11.37s-11.37-4.83-11.37-11.37S204.77,0,211.31,0s11.37,4.83,11.37,11.37Z"/><path class="cls-1" d="m1377.28,11.37c0,6.54-4.83,11.37-11.37,11.37s-11.37-4.83-11.37-11.37S1359.37,0,1365.91,0s11.37,4.83,11.37,11.37Z"/><path class="cls-1" d="m512.33,11.37c0,6.54-4.83,11.37-11.37,11.37s-11.37-4.83-11.37-11.37S494.42,0,500.96,0s11.37,4.83,11.37,11.37Z"/><path class="cls-1" d="m195.78,486.64c0-6.54,4.83-11.37,11.37-11.37s11.37,4.83,11.37,11.37-4.83,11.37-11.37,11.37-11.37-4.83-11.37-11.37Z"/><path class="cls-1" d="m286.42,445.44c0,6.54-4.83,11.37-11.37,11.37s-11.37-4.83-11.37-11.37,4.83-11.37,11.37-11.37,11.37,4.83,11.37,11.37Z"/><path class="cls-1" d="m789.54,63.94c-6.54,0-11.37-4.83-11.37-11.37s4.83-11.37,11.37-11.37,11.37,4.83,11.37,11.37c0,6.54-4.83,11.37-11.37,11.37Z"/><path class="cls-1" d="m721.64,0c6.54,0,11.37,4.83,11.37,11.37,0,6.54-4.83,11.37-11.37,11.37-6.54,0-11.37-4.83-11.37-11.37,0-6.54,4.83-11.37,11.37-11.37Z"/><path class="cls-1" d="m699.06,434.07c6.54,0,11.37,4.83,11.37,11.37,0,6.54-4.83,11.37-11.37,11.37-6.54,0-11.37-4.83-11.37-11.37s4.83-11.37,11.37-11.37Z"/><path class="cls-1" d="m766.96,498.01c-6.54,0-11.37-4.83-11.37-11.37,0-6.54,4.83-11.37,11.37-11.37,6.54,0,11.37,4.83,11.37,11.37,0,6.54-4.83,11.37-11.37,11.37Z"/><path class="cls-1" d="m500.96,498.01c-6.54,0-11.37-4.83-11.37-11.37,0-6.54,4.83-11.37,11.37-11.37,6.54,0,11.37,4.83,11.37,11.37,0,6.54-4.83,11.37-11.37,11.37Z"/><path class="cls-1" d="m500.96,439.15c-6.54,0-11.37-4.83-11.37-11.37,0-6.54,4.83-11.37,11.37-11.37,6.54,0,11.37,4.83,11.37,11.37,0,6.54-4.83,11.37-11.37,11.37Z"/><path class="cls-1" d="m1018.01,0c6.54,0,11.37,4.83,11.37,11.37s-4.83,11.37-11.37,11.37c-6.54,0-11.37-4.83-11.37-11.37,0-6.54,4.83-11.37,11.37-11.37Z"/><path class="cls-1" d="m1247.52,120.79c6.54,0,11.37,4.83,11.37,11.37,0,6.54-4.83,11.37-11.37,11.37-6.54,0-11.37-4.83-11.37-11.37,0-6.54,4.83-11.37,11.37-11.37Z"/><path class="cls-1" d="m1320.76,120.79c6.54,0,11.37,4.83,11.37,11.37,0,6.54-4.83,11.37-11.37,11.37-6.54,0-11.37-4.83-11.37-11.37,0-6.54,4.83-11.37,11.37-11.37Z"/><path class="cls-1" d="m962.38,149.22c6.54,0,11.37,4.83,11.37,11.37,0,6.54-4.83,11.37-11.37,11.37s-11.37-4.83-11.37-11.37c0-6.54,4.83-11.37,11.37-11.37Z"/><path class="cls-1" d="m962.38,475.27c6.54,0,11.37,4.83,11.37,11.37,0,6.54-4.83,11.37-11.37,11.37-6.54,0-11.37-4.83-11.37-11.37,0-6.54,4.83-11.37,11.37-11.37Z"/><path class="cls-1" d="m1006.64,475.27c6.54,0,11.37,4.83,11.37,11.37,0,6.54-4.83,11.37-11.37,11.37-6.54,0-11.37-4.83-11.37-11.37,0-6.54,4.83-11.37,11.37-11.37Z"/><path class="cls-1" d="m1380.43,475.27c6.54,0,11.37,4.83,11.37,11.37,0,6.54-4.83,11.37-11.37,11.37-6.54,0-11.37-4.83-11.37-11.37,0-6.54,4.83-11.37,11.37-11.37Z"/><path class="cls-1" d="m121.99,11.37c0,6.54-4.83,11.37-11.37,11.37s-11.37-4.83-11.37-11.37S104.08,0,110.62,0s11.37,4.83,11.37,11.37Z"/><path class="cls-1" d="m141.02,160.59c0-6.54,4.83-11.37,11.37-11.37s11.37,4.83,11.37,11.37v11.37h-22.74v-11.37Z"/><path class="cls-1" d="m163.76,103.73c0,6.54-4.83,11.37-11.37,11.37s-11.37-4.83-11.37-11.37v-11.37h22.74v11.37Z"/><rect class="cls-1" x="141.02" y="120.79" width="22.74" height="22.74" transform="translate(304.78 264.32) rotate(180)"/><rect class="cls-1" x="141.02" y="63.94" width="22.74" height="22.74" transform="translate(304.78 150.62) rotate(180)"/></g></svg>